<svg width="1500" height="1500" viewBox="0 0 1500 1500" fill="none" xmlns="http://www.w3.org/2000/svg">
<circle cx="750" cy="750" r="750" fill="#0B0B0B"/>
<path d="M805.08 765.568C805.08 780.394 800.263 792.255 790.629 801.151L569.427 1022.43C557.57 1032.81 545.343 1038 532.745 1038H489.394C479.76 1038 470.497 1035.03 461.605 1029.1C453.453 1023.17 447.154 1015.76 442.708 1006.86C434.556 986.849 438.262 968.317 453.824 951.266L643.902 760.008C652.054 754.819 652.054 748.147 643.902 739.992L453.824 549.846C437.52 535.019 433.815 516.486 442.708 494.247C446.413 484.61 452.712 476.826 461.605 470.896C470.497 464.965 479.76 462 489.394 462H532.745C545.343 462 557.57 467.189 569.427 477.568L790.629 698.849C800.263 708.486 805.08 720.347 805.08 734.432V765.568Z" fill="white"/>
<path d="M1062 954.602C1062 977.583 1053.48 997.228 1036.43 1013.54C1020.13 1029.85 1000.49 1038 977.521 1038C955.289 1038 935.652 1029.85 918.607 1013.54C902.304 997.228 894.153 977.583 894.153 954.602C894.153 931.622 902.304 911.977 918.607 895.668C935.652 879.359 955.289 871.205 977.521 871.205C1000.49 871.205 1020.13 879.359 1036.43 895.668C1053.48 911.977 1062 931.622 1062 954.602Z" fill="white"/>
</svg>
